{"extensionsUsed" : ["KHR_materials_specular", "KHR_materials_ior"], "accessors" : [{"bufferView" : 0, "byteOffset" : 0, "componentType" : 5123, "count" : 690, "type" : "SCALAR", "max" : [674], "min" : [0]}, {"bufferView" : 1, "byteOffset" : 0, "componentType" : 5126, "count" : 675, "type" : "VEC3", "max" : [1.9936909675598145, 1.9682142734527588, 0.928046703338623], "min" : [-1.9936909675598145, -1.6731387376785278, -2.8543014526367188], "name" : "POSITION"}, {"bufferView" : 1, "byteOffset" : 12, "componentType" : 5126, "count" : 675, "type" : "VEC3", "max" : [0.9867162108421326, 0.9427812099456787, 0.9846248030662537], "min" : [-0.9867162108421326, -0.9973862171173096, -0.9982783794403076], "name" : "NORMAL"}, {"bufferView" : 1, "byteOffset" : 24, "componentType" : 5126, "count" : 675, "type" : "VEC2", "max" : [1, 2], "min" : [0, 1], "name" : "TEXCOORD_0"}, {"bufferView" : 0, "byteOffset" : 1380, "componentType" : 5123, "count" : 6, "type" : "SCALAR", "max" : [5], "min" : [0]}, {"bufferView" : 2, "byteOffset" : 0, "componentType" : 5126, "count" : 6, "type" : "VEC3", "max" : [0.7599252462387085, -0.27600762248039246, -0.025863490998744965], "min" : [-0.7599252462387085, -0.5253443717956543, -0.025863520801067352], "name" : "POSITION"}, {"bufferView" : 2, "byteOffset" : 12, "componentType" : 5126, "count" : 6, "type" : "VEC3", "max" : [0, -0, 1.0000044107437134], "min" : [0, -0, 1.0000044107437134], "name" : "NORMAL"}, {"bufferView" : 2, "byteOffset" : 24, "componentType" : 5126, "count" : 6, "type" : "VEC2", "max" : [0.6665565967559814, 1.703479528427124], "min" : [0.3126155138015747, 1.2602794170379639], "name" : "TEXCOORD_0"}, {"bufferView" : 0, "byteOffset" : 1392, "componentType" : 5123, "count" : 102, "type" : "SCALAR", "max" : [95], "min" : [0]}, {"bufferView" : 3, "byteOffset" : 0, "componentType" : 5126, "count" : 96, "type" : "VEC3", "max" : [0.8470236659049988, -1.1197645664215088, 0.8196507692337036], "min" : [-0.8470236659049988, -1.7738995552062988, -0.015819251537322998], "name" : "POSITION"}, {"bufferView" : 3, "byteOffset" : 12, "componentType" : 5126, "count" : 96, "type" : "VEC3", "max" : [0.98776775598526, 0.10700279474258423, 0.9084981679916382], "min" : [-0.98776775598526, -0.9783041477203369, -0.2067008763551712], "name" : "NORMAL"}, {"bufferView" : 3, "byteOffset" : 24, "componentType" : 5126, "count" : 96, "type" : "VEC2", "max" : [0, 2], "min" : [0, 2], "name" : "TEXCOORD_0"}, {"bufferView" : 0, "byteOffset" : 1596, "componentType" : 5123, "count" : 24, "type" : "SCALAR", "max" : [22], "min" : [0]}, {"bufferView" : 4, "byteOffset" : 0, "componentType" : 5126, "count" : 23, "type" : "VEC3", "max" : [0.3284030854701996, -1.0698775053024292, 0.928046703338623], "min" : [-0.3284030854701996, -1.5124318599700928, 0.6021643877029419], "name" : "POSITION"}, {"bufferView" : 4, "byteOffset" : 12, "componentType" : 5126, "count" : 23, "type" : "VEC3", "max" : [0.9669595956802368, 0.04720180481672287, 0.9633035063743591], "min" : [-0.9669595956802368, -0.2703876495361328, 0.22829045355319977], "name" : "NORMAL"}, {"bufferView" : 4, "byteOffset" : 24, "componentType" : 5126, "count" : 23, "type" : "VEC2", "max" : [0, 2], "min" : [0, 2], "name" : "TEXCOORD_0"}, {"bufferView" : 0, "byteOffset" : 1644, "componentType" : 5123, "count" : 60, "type" : "SCALAR", "max" : [55], "min" : [0]}, {"bufferView" : 5, "byteOffset" : 0, "componentType" : 5126, "count" : 56, "type" : "VEC3", "max" : [1.9936909675598145, 1.9682142734527588, -0.24965782463550568], "min" : [-1.9936909675598145, 0.09232276678085327, -0.696081817150116], "name" : "POSITION"}, {"bufferView" : 5, "byteOffset" : 12, "componentType" : 5126, "count" : 56, "type" : "VEC3", "max" : [0.3073982894420624, -0.03410210460424423, 0.9627594351768494], "min" : [-0.3073982894420624, -0.0549996979534626, 0.9499947428703308], "name" : "NORMAL"}, {"bufferView" : 5, "byteOffset" : 24, "componentType" : 5126, "count" : 56, "type" : "VEC2", "max" : [1, 2], "min" : [0, 1], "name" : "TEXCOORD_0"}], "asset" : {"generator" : "Aspose.3D 24.1.0", "version" : "2.0"}, "buffers" : [{"uri" : "data:application/octet-stream;base64,", "byteLength" : 30012}], "bufferViews" : [{"buffer" : 0, "byteOffset" : 0, "byteLength" : 1764, "target" : 34963}, {"buffer" : 0, "byteOffset" : 1768, "byteLength" : 22080, "byteStride" : 32, "target" : 34962}, {"buffer" : 0, "byteOffset" : 23852, "byteLength" : 192, "byteStride" : 32, "target" : 34962}, {"buffer" : 0, "byteOffset" : 24048, "byteLength" : 3264, "byteStride" : 32, "target" : 34962}, {"buffer" : 0, "byteOffset" : 27316, "byteLength" : 768, "byteStride" : 32, "target" : 34962}, {"buffer" : 0, "byteOffset" : 28088, "byteLength" : 1920, "byteStride" : 32, "target" : 34962}], "materials" : [{"name" : "orange", "extensions" : {"KHR_materials_specular" : {"specularFactor" : 0.19796955585479736}, "KHR_materials_ior" : {"ior" : 1.4500000476837158}}, "pbrMetallicRoughness" : {"baseColorFactor" : [0.7758224010467529, 0.18116427958011627, 0.010960093699395657, 1], "metallicFactor" : 0, "roughnessFactor" : 0.5363636612892151}, "emissiveFactor" : [0, 0, 0], "alphaMode" : "OPAQUE", "doubleSided" : true}, {"name" : "blue gray", "pbrMetallicRoughness" : {"baseColorFactor" : [0.016807381063699722, 0.03433981165289879, 0.06301002949476242, 1], "metallicFactor" : 0, "roughnessFactor" : 0.5}, "emissiveFactor" : [0, 0, 0], "alphaMode" : "OPAQUE", "doubleSided" : true}, {"name" : "white", "extensions" : {"KHR_materials_specular" : {"specularFactor" : 0}, "KHR_materials_ior" : {"ior" : 1.4500000476837158}}, "pbrMetallicRoughness" : {"baseColorFactor" : [0.800000011920929, 0.800000011920929, 0.800000011920929, 1], "metallicFactor" : 0, "roughnessFactor" : 0.18698060512542725}, "emissiveFactor" : [0.9111886620521545, 0.9111886620521545, 0.9111886620521545], "alphaMode" : "OPAQUE", "doubleSided" : true}, {"name" : "Black", "extensions" : {"KHR_materials_specular" : {"specularFactor" : 0.20775623619556427}, "KHR_materials_ior" : {"ior" : 1.4500000476837158}}, "pbrMetallicRoughness" : {"baseColorFactor" : [0, 0, 0, 1], "metallicFactor" : 0, "roughnessFactor" : 0.32240113615989685}, "emissiveFactor" : [0, 0, 0], "alphaMode" : "OPAQUE", "doubleSided" : true}, {"name" : "Brown", "pbrMetallicRoughness" : {"baseColorFactor" : [0.18116427958011627, 0.046665091067552567, 0.008023194968700409, 1], "metallicFactor" : 0, "roughnessFactor" : 0.5}, "emissiveFactor" : [0, 0, 0], "alphaMode" : "OPAQUE", "doubleSided" : true}], "meshes" : [{"primitives" : [{"attributes" : {"POSITION" : 1, "NORMAL" : 2, "TEXCOORD_0" : 3}, "indices" : 0, "material" : 0, "mode" : 4}, {"attributes" : {"POSITION" : 5, "NORMAL" : 6, "TEXCOORD_0" : 7}, "indices" : 4, "material" : 1, "mode" : 4}, {"attributes" : {"POSITION" : 9, "NORMAL" : 10, "TEXCOORD_0" : 11}, "indices" : 8, "material" : 2, "mode" : 4}, {"attributes" : {"POSITION" : 13, "NORMAL" : 14, "TEXCOORD_0" : 15}, "indices" : 12, "material" : 3, "mode" : 4}, {"attributes" : {"POSITION" : 17, "NORMAL" : 18, "TEXCOORD_0" : 19}, "indices" : 16, "material" : 4, "mode" : 4}]}], "nodes" : [{"matrix" : [0.473442405462265, 0, 0, 0, 0, 0.473442405462265, 0, 0, 0, 0, 0.473442405462265, 0, 0, 0, 0, 1], "mesh" : 0, "name" : "Plane.004"}], "scene" : 0, "scenes" : [{"nodes" : [0]}]}